<svg id="Layer_5" enable-background="new 0 0 64 64" height="512" viewBox="0 0 64 64" width="512" xmlns="http://www.w3.org/2000/svg"><path d="m58 15h-11v-6h-8v-8h-38v50h8v6h22v1c0 2.757 2.243 5 5 5h22c2.757 0 5-2.243 5-5v-38c0-2.757-2.243-5-5-5zm-55 34v-46h34v6h-17.414l-10.586 10.586v29.414zm16-36.586v6.586h-6.586zm12 22.586h-16v-8h16zm0-15v5h-18v12h18v18h-20v-34h10v-10h24v4h-9c-2.757 0-5 2.243-5 5zm30 38c0 1.654-1.346 3-3 3h-22c-1.654 0-3-1.346-3-3v-38c0-1.654 1.346-3 3-3h22c1.654 0 3 1.346 3 3z"/><path d="m57 23h-20c-1.103 0-2 .897-2 2v28c0 1.103.897 2 2 2h20c1.103 0 2-.897 2-2v-28c0-1.103-.897-2-2-2zm0 6h-4v-4h4zm-16-4v4h-4v-4zm-4 6h6v-6h8v6h6v16h-6v6h-14zm16 22v-4h4v4z"/><path d="m43 57h8v2h-8z"/><path d="m46 19h6v2h-6z"/><path d="m42 19h2v2h-2z"/><path d="m47 49h-8v2h8c1.103 0 2-.897 2-2v-2h-2z"/><path d="m41 47h2v-2h-2v-2h2v-2h-2c-1.103 0-2 .897-2 2v2c0 1.103.897 2 2 2z"/><path d="m47 41h-2v2h2v2h2v-2c0-1.103-.897-2-2-2z"/><path d="m51 43h4v2h-4z"/><path d="m53 41h2v-6c0-1.103-.897-2-2-2h-2v2h2z"/><path d="m45 37h6v2h-6z"/><path d="m47 35h2v-2h-2v-4h2v-2h-2c-1.103 0-2 .897-2 2v4c0 1.103.897 2 2 2z"/><path d="m43 37v-2c0-1.103-.897-2-2-2h-2v2h2v2h-2v2h2c1.103 0 2-.897 2-2z"/><path d="m23 13h9v2h-9z"/><path d="m23 17h6v2h-6z"/><path d="m23 21h6v2h-6z"/><path d="m13 39h2v2h-2z"/><path d="m17 39h12v2h-12z"/><path d="m13 43h16v2h-16z"/><path d="m13 47h16v2h-16z"/><path d="m13 51h16v2h-16z"/><path d="m5 5h2v2h-2z"/><path d="m9 5h26v2h-26z"/><path d="m5 9h6v2h-6z"/><path d="m5 13h6v2h-6z"/></svg>