<svg height="512pt" viewBox="0 -13 512.003 512" width="512pt" xmlns="http://www.w3.org/2000/svg"><path d="m510.011719 234.992188c-10.570313-21.472657-23.3125-41.53125-37.875-59.769532v-167.722656c0-4.140625-3.355469-7.5-7.5-7.5h-47.882813c-4.140625 0-7.5 3.359375-7.5 7.5 0 4.144531 3.359375 7.5 7.5 7.5h40.386719v142.773438c-13.550781-14.636719-28.359375-27.828126-44.222656-39.292969-3.351563-2.425781-8.042969-1.675781-10.46875 1.683593-2.429688 3.355469-1.675781 8.042969 1.683593 10.472657 19.472657 14.074219 37.289063 30.890625 53.007813 49.902343v42.992188c0 4.140625 3.355469 7.496094 7.496094 7.496094 4.144531 0 7.5-3.355469 7.5-7.496094v-23.265625c9.09375 13.011719 17.273437 26.839844 24.417969 41.351563.582031 1.179687.582031 2.535156 0 3.714843-13.351563 27.113281-30.171876 51.730469-50.03125 73.253907-11.957032-9.636719-27.140626-15.425782-43.660157-15.425782-11.953125 0-23.765625 3.09375-34.160156 8.949219-3.605469 2.03125-4.886719 6.605469-2.851563 10.214844 2.03125 3.609375 6.605469 4.886719 10.214844 2.855469 8.148438-4.59375 17.414063-7.019532 26.796875-7.019532 30.164063 0 54.707031 24.539063 54.707031 54.707032 0 30.164062-24.542968 54.703124-54.707031 54.703124-30.164062 0-54.707031-24.539062-54.707031-54.703124 0-9.101563 2.277344-18.113282 6.589844-26.054688 1.976562-3.640625.628906-8.191406-3.011719-10.167969-3.644531-1.976562-8.195313-.625-10.171875 3.015625-5.496094 10.128906-8.402344 21.613282-8.402344 33.207032 0 6.582031.933594 12.945312 2.648438 18.984374-25.777344 8.804688-52.597656 13.269532-79.804688 13.269532-49.886718 0-98.742187-15.226563-141.289062-44.027344-10.140625-6.867188-19.851563-14.453125-29.085938-22.683594h42.976563c4.140625 0 7.5-3.359375 7.5-7.5s-3.359375-7.5-7.5-7.5h-58.570313c-21.703125-22.492187-40.191406-48.847656-54.585937-78.074218-.582031-1.183594-.582031-2.539063 0-3.71875 16.429687-33.378907 37.863281-62.664063 63.761719-87.1875 11.25 19.371093 32.214843 32.429687 56.179687 32.429687 35.808594 0 64.941406-29.128906 64.941406-64.9375 0-11.496094-3.015625-22.296875-8.277343-31.671875 20.84375-5.597656 42.320312-8.441406 63.945312-8.441406 41.667969 0 81.699219 10.253906 118.988281 30.480468 1.136719.617188 2.359375.910157 3.570313.910157 2.660156 0 5.238281-1.421875 6.597656-3.925781 1.976562-3.640626.625-8.195313-3.015625-10.167969-39.511719-21.429688-81.949219-32.296875-126.140625-32.296875-24.886719 0-49.597656 3.546875-73.457031 10.53125-11.847657-12.523438-28.597657-20.359375-47.152344-20.359375-2.230469 0-4.457031.121093-6.664063.347656.015626-.527344.039063-1.058594.039063-1.589844 0-28.019531-22.796875-50.8125-50.816406-50.8125-28.015625 0-50.8125 22.792969-50.8125 50.8125 0 26.128907 19.828125 47.707031 45.222656 50.5-1.265625 5.097657-1.910156 10.34375-1.910156 15.683594 0 6.191406.890625 12.171875 2.515625 17.847656-29.023438 26.503907-52.902344 58.511719-70.972656 95.222657-2.65625 5.390624-2.65625 11.578124 0 16.96875 13.0625 26.53125 29.160156 50.480468 47.640624 71.449218h-18.808593c-4.140625 0-7.496094 3.359375-7.496094 7.5v59.886719c0 4.140625 3.355469 7.496094 7.496094 7.496094 4.144531 0 7.5-3.355469 7.5-7.496094v-52.386719h25.449219c52.25 51.824219 120.320312 81.710938 192.230468 81.710938 29.136719 0 57.851563-4.832032 85.429688-14.347656 11.769531 21.882812 34.890625 36.796874 61.429687 36.796874 38.4375 0 69.703125-31.269531 69.703125-69.703124 0-16.523438-5.789062-31.710938-15.429687-43.667969 21.015625-22.691407 38.792969-48.644531 52.871093-77.234375 2.660157-5.394532 2.660157-11.582032.003907-16.972656zm-374.621094-163.011719c27.539063 0 49.941406 22.402343 49.941406 49.941406s-22.402343 49.941406-49.941406 49.941406c-27.535156 0-49.9375-22.402343-49.9375-49.941406 0-5.648437.933594-11.15625 2.765625-16.414063 17.429688-3.589843 31.621094-16.132812 37.554688-32.589843 3.152343-.617188 6.375-.9375 9.617187-.9375zm-93.253906-16.242188c0-19.75 16.066406-35.816406 35.816406-35.816406 19.746094 0 35.8125 16.066406 35.8125 35.816406s-16.066406 35.816407-35.8125 35.816407c-19.75 0-35.816406-16.066407-35.816406-35.816407zm0 0"/><path d="m74.824219 444.753906h-44c-4.140625 0-7.496094 3.355469-7.496094 7.5 0 4.140625 3.355469 7.496094 7.496094 7.496094h44c4.140625 0 7.5-3.355469 7.5-7.496094 0-4.144531-3.359375-7.5-7.5-7.5zm0 0"/><path d="m74.824219 470.34375h-44c-4.140625 0-7.496094 3.359375-7.496094 7.5s3.355469 7.5 7.496094 7.5h44c4.140625 0 7.5-3.359375 7.5-7.5s-3.359375-7.5-7.5-7.5zm0 0"/><path d="m30.824219 432.34375c4.144531 0 7.5-3.355469 7.5-7.5v-.125c0-4.140625-3.355469-7.496094-7.5-7.496094-4.140625 0-7.496094 3.355469-7.496094 7.496094v.125c0 4.144531 3.355469 7.5 7.496094 7.5zm0 0"/><path d="m394.480469 401.066406c2.46875 0 4.933593-.652344 7.121093-1.953125l24.003907-14.269531c4.265625-2.535156 6.8125-7.011719 6.8125-11.976562 0-4.964844-2.546875-9.441407-6.8125-11.976563l-24.003907-14.273437c-4.296874-2.550782-9.660156-2.605469-14.007812-.132813s-7.046875 7.113281-7.046875 12.113281v28.539063c0 5 2.699219 9.640625 7.046875 12.113281 2.132812 1.210938 4.511719 1.816406 6.886719 1.816406zm1.066406-40.597656 20.855469 12.398438-20.855469 12.398437zm0 0"/><path d="m120.75 129.421875h7.140625v7.144531c0 4.140625 3.359375 7.5 7.5 7.5 4.144531 0 7.5-3.359375 7.5-7.5v-7.144531h7.144531c4.140625 0 7.5-3.359375 7.5-7.5s-3.359375-7.5-7.5-7.5h-7.144531v-7.144531c0-4.140625-3.355469-7.5-7.5-7.5-4.140625 0-7.5 3.359375-7.5 7.5v7.144531h-7.140625c-4.144531 0-7.5 3.359375-7.5 7.5s3.355469 7.5 7.5 7.5zm0 0"/><path d="m96.496094 55.738281c0-4.140625-3.359375-7.5-7.5-7.5h-22.085938c-4.140625 0-7.5 3.359375-7.5 7.5s3.359375 7.5 7.5 7.5h22.085938c4.140625 0 7.5-3.359375 7.5-7.5zm0 0"/><path d="m376.691406 51.53125h43.996094c4.144531 0 7.5-3.359375 7.5-7.5s-3.355469-7.5-7.5-7.5h-43.996094c-4.144531 0-7.5 3.359375-7.5 7.5s3.355469 7.5 7.5 7.5zm0 0"/><path d="m376.691406 77.121094h43.996094c4.144531 0 7.5-3.355469 7.5-7.496094 0-4.144531-3.355469-7.5-7.5-7.5h-43.996094c-4.144531 0-7.5 3.355469-7.5 7.5 0 4.140625 3.355469 7.496094 7.5 7.496094zm0 0"/><path d="m376.691406 15.125c4.144532 0 7.5-3.355469 7.5-7.5v-.125c0-4.140625-3.355468-7.5-7.5-7.5-4.144531 0-7.5 3.359375-7.5 7.5v.125c0 4.144531 3.355469 7.5 7.5 7.5zm0 0"/><path d="m271.285156 299.214844c-3.996094 1.09375-6.347656 5.214844-5.253906 9.210937.910156 3.332031 3.933594 5.523438 7.226562 5.523438.65625 0 1.320313-.085938 1.984376-.269531 31.535156-8.621094 53.5625-37.496094 53.5625-70.210938 0-40.144531-32.660157-72.804688-72.804688-72.804688s-72.800781 32.660157-72.800781 72.804688c0 32.714844 22.023437 61.589844 53.5625 70.210938 3.996093 1.09375 8.121093-1.257813 9.210937-5.253907 1.09375-3.996093-1.257812-8.121093-5.253906-9.210937-25.035156-6.847656-42.519531-29.769532-42.519531-55.75 0-31.871094 25.929687-57.800782 57.800781-57.800782 13.238281 0 25.445312 4.484376 35.199219 11.996094l-16.78125 16.78125c-5.328125-3.390625-11.644531-5.367187-18.417969-5.367187-18.964844 0-34.394531 15.425781-34.394531 34.390625 0 18.96875 15.429687 34.394531 34.394531 34.394531s34.394531-15.429687 34.394531-34.394531c0-6.769532-1.976562-13.085938-5.371093-18.414063l16.78125-16.78125c7.515624 9.753907 12 21.957031 12 35.195313 0 25.980468-17.484376 48.902344-42.519532 55.75zm-15.28125-36.351563c-10.695312 0-19.394531-8.703125-19.394531-19.394531 0-10.695312 8.699219-19.394531 19.394531-19.394531 10.691406 0 19.394532 8.699219 19.394532 19.394531 0 10.691406-8.703126 19.394531-19.394532 19.394531zm0 0"/><path d="m369.328125 235.96875h-20.03125c-4.144531 0-7.5 3.355469-7.5 7.5 0 4.140625 3.355469 7.5 7.5 7.5h20.03125c4.144531 0 7.5-3.359375 7.5-7.5 0-4.144531-3.359375-7.5-7.5-7.5zm0 0"/><path d="m142.675781 235.96875c-4.140625 0-7.5 3.355469-7.5 7.5 0 4.140625 3.359375 7.5 7.5 7.5h20.035157c4.140624 0 7.5-3.359375 7.5-7.5 0-4.144531-3.359376-7.5-7.5-7.5zm0 0"/><path d="m263.503906 150.175781v-20.03125c0-4.144531-3.359375-7.5-7.5-7.5-4.144531 0-7.5 3.355469-7.5 7.5v20.03125c0 4.140625 3.355469 7.5 7.5 7.5 4.140625 0 7.5-3.359375 7.5-7.5zm0 0"/><path d="m248.503906 336.761719v20.03125c0 4.140625 3.355469 7.5 7.5 7.5 4.140625 0 7.5-3.359375 7.5-7.5v-20.03125c0-4.144531-3.359375-7.5-7.5-7.5-4.144531 0-7.5 3.355469-7.5 7.5zm0 0"/></svg>